<svg xmlns="http://www.w3.org/2000/svg" viewBox="0 0 189.86 47.56"><defs><style>.cls-1{fill:#fafce3;}</style></defs><title>Ресурс 32logo</title><g id="Слой_2" data-name="Слой 2"><g id="Слой_1-2" data-name="Слой 1"><path class="cls-1" d="M11.33,39.69.07,2A1.46,1.46,0,0,1,1.47.07H11.85a1.49,1.49,0,0,1,1.41,1.11l3.87,14.54a1.75,1.75,0,0,0,3.4-.06l.88-3.6A1.76,1.76,0,0,1,24.82,12l3.34,12.21a2.42,2.42,0,0,1,0,.93L24.23,39.69a1.49,1.49,0,0,1-1.41,1.1H12.73A1.56,1.56,0,0,1,11.33,39.69Zm23.05,0L24.05,1.93A1.5,1.5,0,0,1,25.46.07H36a1.49,1.49,0,0,1,1.4,1.11L47,38.93a1.49,1.49,0,0,1-1.41,1.86H35.78A1.56,1.56,0,0,1,34.38,39.69Z"/><path class="cls-1" d="M57.13,15.37c.59,1.34,1.52,2.45,1.7,4.07a3.8,3.8,0,0,0,1.41,1.92c.11.06.23-.05.23-.35a8.93,8.93,0,0,0-.29-1.1c-.12-.29,0-.58-.06-.58.12.06.82,1.28.88.87a13.3,13.3,0,0,0-.53-1.45,13.72,13.72,0,0,1-1-2.1c-.53-1.86-.94-3.72-1.41-5.64a15.69,15.69,0,0,0-.82-2.79A11.74,11.74,0,0,0,55.6,6.3a2.37,2.37,0,0,1-.17-2.68,1.16,1.16,0,0,0-.06-1.57C54.9,1.41,54.61.66,53.9.25A2,2,0,0,0,52.5,0a2.18,2.18,0,0,0-1.94,1.51,2.43,2.43,0,0,0,.94,3.14c.23.12.47.29.82.46l-1.52.41a1.57,1.57,0,0,0-1.18,1,8.28,8.28,0,0,1-1.29,1.92c-.76,1-.76,1-.17,1.92a50.69,50.69,0,0,1-4.87,6.28c-.29.29.23.29.53,0,0-.06.17-.23.29-.17a1.07,1.07,0,0,1,.18.58,2.7,2.7,0,0,0,0,1c.11.23.35.17.46,0,0,.11.36-.87.36-1-.24-1.16-.18-1,.41-1.69.82-1,2.81-2,3.75-2.91a9.6,9.6,0,0,0,1.06-1.63c.29,1.11.58,2.1.82,3.09a.43.43,0,0,1-.06.29C49.92,16,50,17.93,49.74,19.91c-.18,1.4-.24,2.79-.47,4.13a8.92,8.92,0,0,1-.88,2.33c-.23.46-1.88.69-2.4.46-1.29-.58-1.65-.41-2.35.82-.53.93-1.11,1.86-1.58,2.79a2.81,2.81,0,0,0-.3.93c0,.17.06.41.18.46a.47.47,0,0,0,.47-.11,10,10,0,0,1,2.87-2.45c.94-.63,1.12-.23,1.18-.11s.23.41.29.46a6.51,6.51,0,0,0-.35,1c-.18.7-.3,1.4-.41,2.1-.06.35-.12,1.63-.18,2-.06.64-.18.18-.29,1a15.33,15.33,0,0,1-.47,1.69,1.81,1.81,0,0,0,.76,2.44c.7.35,1.17.12,1.35-.64.06-.46.17-.75.23-1.16a8,8,0,0,1,.36-2.15,18.71,18.71,0,0,0,1.11-2.45c.41-1,.82-3.49,1.35-4.3a1.15,1.15,0,0,1,.7-.46l3-.53a1.73,1.73,0,0,0,1.53-1.34,23.76,23.76,0,0,0,1.35-6.34,1.61,1.61,0,0,1,.47-1.28,2.36,2.36,0,0,0,.23-.52C57.54,18.11,57.25,16.59,57.13,15.37Z"/><path class="cls-1" d="M61.84,41.28a5.91,5.91,0,0,1-2.46-.41,2.83,2.83,0,0,1-1.25-1.06,3.86,3.86,0,0,1-.45-1.34c0-.47-.06-.9-.06-1.28V31c0-.32,0-.7.06-1.15a4.09,4.09,0,0,1,.45-1.37,2.88,2.88,0,0,1,1.25-1.12A5.54,5.54,0,0,1,61.84,27h6.88a10.59,10.59,0,0,1,3.3.41,2.77,2.77,0,0,1,1.69,1.28,4.85,4.85,0,0,1,.52,2.4v4.74h-5.6c-1.92,0-3.49,0-4.71-.13l-2.4-.16v1.76c0,.85.49,1.28,1.54,1.28h1.63q1.73,0,3.36,0l3-.13,2.21-.16,1.28,2.08q0,1-6.31,1ZM61.52,33h8.8V31a1.77,1.77,0,0,0-.16-.9c-.08-.17-.36-.27-.83-.32s-1.27-.06-2.4-.06H63.06c-1,0-1.54.43-1.54,1.28Zm16.26,8.25V21h3.91v6.33c.91-.11,2-.19,3.23-.25S87.61,27,89.21,27h1.63a5.94,5.94,0,0,1,2.46.41,2.64,2.64,0,0,1,1.22,1.06A3.33,3.33,0,0,1,95,29.76,10.23,10.23,0,0,1,95.06,31v6.15A9.56,9.56,0,0,1,95,38.37a3.59,3.59,0,0,1-.45,1.35,2.79,2.79,0,0,1-1.22,1.12,5.58,5.58,0,0,1-2.46.44H89.21c-1.78,0-3.32,0-4.64-.12s-2.43-.22-3.3-.32l-.86.44Zm4.9-2.75h6.94c1,0,1.54-.43,1.54-1.28V31a1.22,1.22,0,0,0-.29-1,2,2,0,0,0-1.25-.29H88c-1.36,0-2.58,0-3.65.1s-1.94.09-2.68.16v7.58a1.71,1.71,0,0,0,.12.83A1.42,1.42,0,0,0,82.68,38.53Zm19.82,2.75a6,6,0,0,1-2.47-.41,2.8,2.8,0,0,1-1.24-1.06,3.67,3.67,0,0,1-.45-1.34c0-.47-.07-.9-.07-1.28V31c0-.32,0-.7.07-1.15a3.88,3.88,0,0,1,.45-1.37A2.85,2.85,0,0,1,100,27.4,5.59,5.59,0,0,1,102.5,27h6.88a10.52,10.52,0,0,1,3.29.41,2.8,2.8,0,0,1,1.7,1.28,4.86,4.86,0,0,1,.51,2.4v4.74h-5.6c-1.92,0-3.49,0-4.7-.13l-2.4-.16v1.76c0,.85.49,1.28,1.53,1.28h1.64q1.73,0,3.36,0l3-.13,2.2-.16,1.28,2.08q0,1-6.3,1ZM102.18,33H111V31a1.89,1.89,0,0,0-.16-.9c-.09-.17-.36-.27-.83-.32s-1.27-.06-2.4-.06h-3.88c-1,0-1.53.43-1.53,1.28Zm21.25,8.25L116.84,27h4.48L125,35.78l.83,2.3h.32l.83-2.3L130.73,27h4.35l-.51,1.95-6,12.38Zm17.79,0a6,6,0,0,1-2.47-.41,2.8,2.8,0,0,1-1.24-1.06,3.67,3.67,0,0,1-.45-1.34,12.14,12.14,0,0,1-.07-1.28V31a10.46,10.46,0,0,1,.07-1.15,3.88,3.88,0,0,1,.45-1.37,2.85,2.85,0,0,1,1.24-1.12,5.59,5.59,0,0,1,2.47-.45h6.88a10.52,10.52,0,0,1,3.29.41,2.8,2.8,0,0,1,1.7,1.28,4.86,4.86,0,0,1,.51,2.4v4.74H148c-1.92,0-3.49,0-4.7-.13l-2.4-.16v1.76c0,.85.49,1.28,1.53,1.28h1.64q1.73,0,3.36,0l3-.13,2.21-.16L154,40.29q0,1-6.3,1ZM140.9,33h8.8V31a1.89,1.89,0,0,0-.16-.9c-.09-.17-.37-.27-.83-.32s-1.28-.06-2.41-.06h-3.87c-1,0-1.53.43-1.53,1.28Zm16.26,8.25V27h2.62l1.22.64a8.05,8.05,0,0,1,1.79-.71,9.7,9.7,0,0,1,2.43-.25,11.57,11.57,0,0,1,3.78.51,16.38,16.38,0,0,1,1.95.77l-1.12,2.78a9.53,9.53,0,0,0-1.28-.48,15.87,15.87,0,0,0-2.05-.57,11.66,11.66,0,0,0-2.59-.26h-.35a2.51,2.51,0,0,0-2,.61,3.56,3.56,0,0,0-.48,2v9.28Zm17.37,6.28a10.34,10.34,0,0,1-2.81-.36,6.54,6.54,0,0,1-1.73-.64l1-2.88c.36.15.87.32,1.53.52a7.86,7.86,0,0,0,2.31.32h.35a4,4,0,0,0,2.59-.9,5.43,5.43,0,0,0,1.76-2.34h-1.6L171.62,27h4.48l3.68,8.83.83,2.3h.32l.83-2.3L185.51,27h4.35l-.51,1.95-1.41,2.88-1.6,3.33c-.55,1.15-1.1,2.26-1.63,3.33s-1,2-1.38,2.84a17.66,17.66,0,0,1-2.05,3.33,7.76,7.76,0,0,1-2.52,2.18,7,7,0,0,1-3.36.77Z"/></g></g></svg>