<svg xmlns="http://www.w3.org/2000/svg" viewBox="0 0 63.01 56.05"><defs><style>.cls-1{fill:#fafce3;}</style></defs><title>Ресурс 40small-logo</title><g id="Слой_2" data-name="Слой 2"><g id="Слой_1-2" data-name="Слой 1"><path class="cls-1" d="M5.12,53.89,3.35,49H4.89l.89,2.8.28,1h.11l.17-.87L7.1,49H8.86l.8,2.91.16.87h.11l.29-1L11.06,49H12.6l-.18.67-1.58,4.26H9.08l-.91-3-.11-.51H8l-.14.51-.93,3Zm9.59,0a2.09,2.09,0,0,1-.84-.14,1,1,0,0,1-.43-.37,1.48,1.48,0,0,1-.16-.46c0-.16,0-.31,0-.44V50.37c0-.11,0-.24,0-.4a1.74,1.74,0,0,1,.16-.47,1,1,0,0,1,.43-.38,1.77,1.77,0,0,1,.84-.16h2.37a3.39,3.39,0,0,1,1.13.15.91.91,0,0,1,.59.44,1.73,1.73,0,0,1,.17.82V52H17.05c-.66,0-1.2,0-1.62,0l-.83-.05v.6c0,.3.17.44.53.44h1.72l1,0,.76-.06.44.72c0,.23-.72.34-2.16.34Zm-.11-2.84h3v-.7a.58.58,0,0,0-.06-.31c0-.06-.12-.1-.28-.11l-.83,0H15.13c-.35,0-.53.14-.53.44Zm5.59,2.84v-7h1.35v2.17c.31,0,.68-.06,1.11-.08s.92,0,1.47,0h.56a1.93,1.93,0,0,1,.85.15.84.84,0,0,1,.42.36,1.09,1.09,0,0,1,.15.46,3.61,3.61,0,0,1,0,.44v2.11a3.43,3.43,0,0,1,0,.41,1.18,1.18,0,0,1-.15.46.94.94,0,0,1-.42.39,1.93,1.93,0,0,1-.85.15h-.56c-.61,0-1.14,0-1.59,0l-1.14-.11-.29.15Zm1.69-1h2.38c.36,0,.53-.14.53-.44V50.35a.38.38,0,0,0-.1-.34.63.63,0,0,0-.43-.1h-.55c-.47,0-.88,0-1.25,0s-.67,0-.92.06v2.6a.58.58,0,0,0,0,.29S21.72,52.94,21.88,52.94Zm6.81,1a2.11,2.11,0,0,1-.85-.14,1,1,0,0,1-.43-.37,1.25,1.25,0,0,1-.15-.46c0-.16,0-.31,0-.44V50.37c0-.11,0-.24,0-.4a1.43,1.43,0,0,1,.15-.47,1,1,0,0,1,.43-.38,1.84,1.84,0,0,1,.85-.16h2.36a3.41,3.41,0,0,1,1.14.15.89.89,0,0,1,.58.44,1.61,1.61,0,0,1,.18.82V52H31c-.66,0-1.2,0-1.62,0l-.82-.05v.6c0,.3.17.44.53.44h1.71l1.05,0,.76-.06.44.72c0,.23-.72.34-2.17.34Zm-.11-2.84h3v-.7a.6.6,0,0,0-.05-.31c0-.06-.12-.1-.29-.11l-.82,0H29.11c-.35,0-.53.14-.53.44Zm7.31,2.84L33.62,49h1.54l1.26,3,.29.79h.11l.29-.79,1.28-3h1.5l-.18.67-2.06,4.26Zm6.11,0a2.11,2.11,0,0,1-.85-.14,1,1,0,0,1-.43-.37,1.25,1.25,0,0,1-.15-.46,3.47,3.47,0,0,1,0-.44V50.37a3,3,0,0,1,0-.4,1.43,1.43,0,0,1,.15-.47,1,1,0,0,1,.43-.38A1.84,1.84,0,0,1,42,49h2.36a3.41,3.41,0,0,1,1.14.15.89.89,0,0,1,.58.44,1.61,1.61,0,0,1,.18.82V52H44.33c-.66,0-1.2,0-1.62,0l-.82-.05v.6c0,.3.17.44.53.44h1.71l1,0,.76-.06.44.72c0,.23-.72.34-2.17.34Zm-.11-2.84h3v-.7a.6.6,0,0,0,0-.31c0-.06-.13-.1-.29-.11l-.82,0H42.42c-.35,0-.53.14-.53.44Zm5.59,2.84V49h.9l.42.22a3,3,0,0,1,.61-.24,3.26,3.26,0,0,1,.84-.09,3.87,3.87,0,0,1,1.3.18,5.94,5.94,0,0,1,.67.26l-.39,1a2.53,2.53,0,0,0-.44-.17,4.34,4.34,0,0,0-.7-.19,4.13,4.13,0,0,0-.89-.09h-.12A.86.86,0,0,0,49,50a1.2,1.2,0,0,0-.17.69v3.19Zm6,2.16a3.74,3.74,0,0,1-1-.12,2.54,2.54,0,0,1-.59-.23l.33-1a4.2,4.2,0,0,0,.53.17,2.74,2.74,0,0,0,.79.11h.12a1.36,1.36,0,0,0,.89-.31,1.77,1.77,0,0,0,.61-.8h-.55L52.45,49H54l1.27,3,.28.79h.11l.29-.79,1.28-3h1.5l-.18.67c-.13.29-.3.62-.48,1l-.55,1.15L57,52.91l-.47,1A6.18,6.18,0,0,1,55.77,55a2.57,2.57,0,0,1-.87.75,2.3,2.3,0,0,1-1.15.27Z"/><path class="cls-1" d="M11.7,41,.07,2.06a1.51,1.51,0,0,1,1.45-2H12.25A1.54,1.54,0,0,1,13.7,1.22l4,15a1.81,1.81,0,0,0,3.51-.06l.91-3.73a1.82,1.82,0,0,1,3.51-.06L29.09,25a2.58,2.58,0,0,1,0,1L25,41a1.54,1.54,0,0,1-1.46,1.15H13.15A1.62,1.62,0,0,1,11.7,41Zm23.81,0L24.85,2A1.53,1.53,0,0,1,26.3.08H37.2a1.55,1.55,0,0,1,1.46,1.14l9.93,39a1.55,1.55,0,0,1-1.45,1.93H37A1.61,1.61,0,0,1,35.51,41Z"/><path class="cls-1" d="M59,15.88c.61,1.38,1.58,2.52,1.76,4.2a4,4,0,0,0,1.45,2c.12.06.24-.06.24-.36a8,8,0,0,0-.3-1.14c-.12-.31,0-.61-.06-.61.12.06.85,1.33.91.91a12.45,12.45,0,0,0-.55-1.51,15.6,15.6,0,0,1-1.09-2.16c-.54-1.92-1-3.85-1.45-5.83a15.12,15.12,0,0,0-.85-2.88,12.93,12.93,0,0,0-1.63-2,2.43,2.43,0,0,1-.19-2.76,1.18,1.18,0,0,0-.06-1.62c-.48-.66-.78-1.44-1.51-1.86A2.14,2.14,0,0,0,54.23,0a2.25,2.25,0,0,0-2,1.56,2.5,2.5,0,0,0,1,3.24c.24.12.48.3.84.48l-1.57.42a1.57,1.57,0,0,0-1.21,1,8.85,8.85,0,0,1-1.34,2c-.78,1-.78,1-.18,2a50.75,50.75,0,0,1-5,6.49c-.3.3.25.3.55,0,.06-.06.18-.24.3-.18a1.16,1.16,0,0,1,.18.6,2.86,2.86,0,0,0,0,1c.13.24.37.18.49,0-.06.12.36-.9.36-1-.24-1.2-.18-1,.43-1.74.84-1,2.9-2,3.87-3A9.59,9.59,0,0,0,52,11.19c.31,1.14.61,2.16.85,3.19a.45.45,0,0,1-.06.3c-1.21,1.8-1.15,3.84-1.39,5.89-.18,1.44-.24,2.88-.49,4.26a8.66,8.66,0,0,1-.91,2.4c-.24.49-1.93.73-2.48.49-1.33-.61-1.69-.43-2.42.84-.55,1-1.15,1.92-1.64,2.88a3,3,0,0,0-.3,1c0,.18.06.42.18.48a.48.48,0,0,0,.49-.12,10.14,10.14,0,0,1,3-2.52c1-.66,1.16-.24,1.22-.12s.24.42.3.48a6.9,6.9,0,0,0-.36,1c-.19.72-.31,1.44-.43,2.16-.06.36-.12,1.69-.18,2-.06.66-.18.18-.3,1a14.73,14.73,0,0,1-.49,1.74,1.87,1.87,0,0,0,.79,2.52c.73.36,1.21.12,1.39-.66.06-.48.18-.78.25-1.2A8.47,8.47,0,0,1,49.32,37a18.65,18.65,0,0,0,1.15-2.53c.42-1.08.85-3.6,1.39-4.44a1.22,1.22,0,0,1,.73-.48L55.68,29a1.78,1.78,0,0,0,1.57-1.38,24.25,24.25,0,0,0,1.4-6.55,1.67,1.67,0,0,1,.48-1.33,2.13,2.13,0,0,0,.24-.54C59.43,18.7,59.13,17.14,59,15.88Z"/></g></g></svg>