<svg aria-hidden="true" style="position: absolute; width: 0; height: 0; overflow: hidden;" version="1.1" xmlns="http://www.w3.org/2000/svg" xmlns:xlink="http://www.w3.org/1999/xlink">
<defs>

<symbol id="icon-arrow_left" viewBox="0 0 103 32">
<path fill="none" stroke="#fafce3" style="stroke: var(--color1, #fafce3)" stroke-linejoin="round" stroke-linecap="round" stroke-miterlimit="4" stroke-width="4.5714" d="M100.411 29.114l-96.974 0.315M3.027 29.030l26.685-26.543"></path>
</symbol>
<symbol id="icon-arrow_right" viewBox="0 0 103 32">
<path fill="none" stroke="#fafce3" style="stroke: var(--color1, #fafce3)" stroke-linejoin="round" stroke-linecap="round" stroke-miterlimit="4" stroke-width="4.5714" d="M2.446 29.114l96.974 0.315M99.83 29.030l-26.686-26.543"></path>
</symbol>
<symbol id="icon-chat" viewBox="0 0 32 32">
<path stroke-linejoin="round" stroke-linecap="round" stroke-miterlimit="4" stroke-width="3.2" d="M30.4 20.8c0 0.849-0.337 1.663-0.937 2.263s-1.414 0.937-2.263 0.937h-19.2l-6.4 6.4v-25.6c0-0.849 0.337-1.663 0.937-2.263s1.414-0.937 2.263-0.937h22.4c0.849 0 1.663 0.337 2.263 0.937s0.937 1.414 0.937 2.263v16z"></path>
</symbol>
<symbol id="icon-meil" viewBox="0 0 27 32">
<path stroke-linejoin="round" stroke-linecap="round" stroke-miterlimit="4" stroke-width="1.1429" d="M24.536 10.849h-21.646v13.731h21.646v-13.731z"></path>
<path stroke-linejoin="round" stroke-linecap="round" stroke-miterlimit="4" stroke-width="1.1429" d="M13.72 17.18l10.817 7.4h-21.646l10.829-7.4z"></path>
<path stroke-linejoin="round" stroke-linecap="round" stroke-miterlimit="4" stroke-width="1.1429" d="M13.72 19.5l-10.829-8.651h21.646l-10.817 8.651z"></path>
</symbol>
<symbol id="icon-telephone" viewBox="0 0 27 32">
<path d="M22.194 21.645c-0.106 0.423-0.267 0.831-0.48 1.211-0.115 0.183-0.241 0.358-0.377 0.526-0.241 0.281-0.509 0.537-0.8 0.766-0.299 0.214-0.621 0.395-0.96 0.537-0.903 0.381-1.905 0.461-2.857 0.229-0.201-0.032-0.399-0.078-0.594-0.137-0.434-0.149-0.869-0.297-1.291-0.469s-0.674-0.309-1.017-0.48l-0.857-0.457c-0.24-0.149-0.491-0.297-0.72-0.457l-1.349-0.96-0.503-0.4-1.143-1.006c-0.32-0.286-0.629-0.594-0.926-0.903s-0.617-0.651-0.926-0.983l-0.766-0.891-1.143-1.44c-0.229-0.297-0.457-0.594-0.674-0.903-0.331-0.48-0.663-0.96-0.96-1.451s-0.571-0.891-0.8-1.349c-0.401-0.725-0.661-1.52-0.766-2.343-0.074-0.649 0.005-1.306 0.229-1.92 0.207-0.532 0.518-1.017 0.914-1.429 0.336-0.357 0.721-0.665 1.143-0.914 0.32-0.188 0.662-0.338 1.017-0.446 0.128-0.039 0.263-0.047 0.394-0.023s0.255 0.079 0.36 0.16c0.251 0.229 0.491 0.48 0.743 0.731l0.914 0.857 1.886 1.84 0.96 0.949c0.119 0.092 0.214 0.21 0.28 0.344s0.099 0.283 0.097 0.433c-0.013 0.092-0.033 0.184-0.057 0.274-0.142 0.475-0.362 0.923-0.651 1.326-0.259 0.372-0.58 0.696-0.949 0.96l-0.731 0.48v0.091l0.743 0.777 0.971 0.983 0.937 0.937c0.32 0.309 0.64 0.629 0.971 0.926l1.143 0.971c0.248-0.524 0.602-0.991 1.040-1.371 0.097-0.097 0.2-0.189 0.309-0.274 0.387-0.294 0.819-0.521 1.28-0.674 0.107-0.041 0.218-0.072 0.331-0.091 0.127-0.017 0.256-0.004 0.377 0.038s0.231 0.111 0.32 0.202l0.354 0.354 0.846 0.8 0.949 0.937 0.994 0.971 0.937 0.926c0.194 0.183 0.377 0.377 0.56 0.571 0.121 0.132 0.194 0.301 0.206 0.48l0.091 0.183z"></path>
<path fill="none" stroke="#020b11" style="stroke: var(--color2, #020b11)" stroke-linejoin="round" stroke-linecap="round" stroke-miterlimit="4" stroke-width="1.1429" d="M14.011 6.229c1.797 0.048 3.503 0.799 4.751 2.092s1.939 3.025 1.923 4.822"></path>
<path fill="none" stroke="#020b11" style="stroke: var(--color2, #020b11)" stroke-linejoin="round" stroke-linecap="round" stroke-miterlimit="4" stroke-width="1.1429" d="M14.161 2.857c0 0 9.28 0.080 9.84 10.217"></path>
<path fill="none" stroke="#020b11" style="stroke: var(--color2, #020b11)" stroke-linejoin="round" stroke-linecap="round" stroke-miterlimit="4" stroke-width="1.1429" d="M12.891 9.348c1.229 0.030 2.397 0.541 3.252 1.424s1.329 2.066 1.32 3.296"></path>
</symbol>
<symbol id="icon-close" viewBox="0 0 32 32">
<path fill="none" stroke="#ebfbfa" style="stroke: var(--color2, #ebfbfa)" stroke-linejoin="round" stroke-linecap="round" stroke-miterlimit="4" stroke-width="3.2" d="M11.2 11.2l9.6 9.6M20.8 11.2l-9.6 9.6M4.8 1.6h22.4c1.767 0 3.2 1.433 3.2 3.2v22.4c0 1.767-1.433 3.2-3.2 3.2h-22.4c-1.767 0-3.2-1.433-3.2-3.2v-22.4c0-1.767 1.433-3.2 3.2-3.2z"></path>
</symbol>
<symbol id="icon-telegram" viewBox="0 0 32 32">
<path d="M29.402 2.839l-28.351 10.989c-1.141 0.512-1.527 1.537-0.276 2.093l7.273 2.323 17.585-10.924c0.96-0.686 1.943-0.503 1.097 0.251l-15.104 13.746-0.474 5.817c0.439 0.898 1.244 0.902 1.757 0.456l4.179-3.974 7.157 5.387c1.662 0.989 2.567 0.351 2.924-1.462l4.694-22.342c0.487-2.232-0.344-3.215-2.462-2.36z"></path>
</symbol>
<symbol id="icon-facebook" viewBox="0 0 32 32">
<path d="M19 6h5v-6h-5c-3.86 0-7 3.14-7 7v3h-4v6h4v16h6v-16h5l1-6h-6v-3c0-0.542 0.458-1 1-1z"></path>
</symbol>
<symbol id="icon-instagram" viewBox="0 0 32 32">
<path d="M16 2.881c4.275 0 4.781 0.019 6.462 0.094 1.563 0.069 2.406 0.331 2.969 0.55 0.744 0.288 1.281 0.638 1.837 1.194 0.563 0.563 0.906 1.094 1.2 1.838 0.219 0.563 0.481 1.412 0.55 2.969 0.075 1.688 0.094 2.194 0.094 6.463s-0.019 4.781-0.094 6.463c-0.069 1.563-0.331 2.406-0.55 2.969-0.288 0.744-0.637 1.281-1.194 1.837-0.563 0.563-1.094 0.906-1.837 1.2-0.563 0.219-1.413 0.481-2.969 0.55-1.688 0.075-2.194 0.094-6.463 0.094s-4.781-0.019-6.463-0.094c-1.563-0.069-2.406-0.331-2.969-0.55-0.744-0.288-1.281-0.637-1.838-1.194-0.563-0.563-0.906-1.094-1.2-1.837-0.219-0.563-0.481-1.413-0.55-2.969-0.075-1.688-0.094-2.194-0.094-6.463s0.019-4.781 0.094-6.463c0.069-1.563 0.331-2.406 0.55-2.969 0.288-0.744 0.638-1.281 1.194-1.838 0.563-0.563 1.094-0.906 1.838-1.2 0.563-0.219 1.412-0.481 2.969-0.55 1.681-0.075 2.188-0.094 6.463-0.094zM16 0c-4.344 0-4.887 0.019-6.594 0.094-1.7 0.075-2.869 0.35-3.881 0.744-1.056 0.412-1.95 0.956-2.837 1.85-0.894 0.888-1.438 1.781-1.85 2.831-0.394 1.019-0.669 2.181-0.744 3.881-0.075 1.713-0.094 2.256-0.094 6.6s0.019 4.887 0.094 6.594c0.075 1.7 0.35 2.869 0.744 3.881 0.413 1.056 0.956 1.95 1.85 2.837 0.887 0.887 1.781 1.438 2.831 1.844 1.019 0.394 2.181 0.669 3.881 0.744 1.706 0.075 2.25 0.094 6.594 0.094s4.888-0.019 6.594-0.094c1.7-0.075 2.869-0.35 3.881-0.744 1.050-0.406 1.944-0.956 2.831-1.844s1.438-1.781 1.844-2.831c0.394-1.019 0.669-2.181 0.744-3.881 0.075-1.706 0.094-2.25 0.094-6.594s-0.019-4.887-0.094-6.594c-0.075-1.7-0.35-2.869-0.744-3.881-0.394-1.063-0.938-1.956-1.831-2.844-0.887-0.887-1.781-1.438-2.831-1.844-1.019-0.394-2.181-0.669-3.881-0.744-1.712-0.081-2.256-0.1-6.6-0.1v0z"></path>
<path d="M16 7.781c-4.537 0-8.219 3.681-8.219 8.219s3.681 8.219 8.219 8.219 8.219-3.681 8.219-8.219c0-4.537-3.681-8.219-8.219-8.219zM16 21.331c-2.944 0-5.331-2.387-5.331-5.331s2.387-5.331 5.331-5.331c2.944 0 5.331 2.387 5.331 5.331s-2.387 5.331-5.331 5.331z"></path>
<path d="M26.462 7.456c0 1.060-0.859 1.919-1.919 1.919s-1.919-0.859-1.919-1.919c0-1.060 0.859-1.919 1.919-1.919s1.919 0.859 1.919 1.919z"></path>
</symbol>
<symbol id="icon-linkedin" viewBox="0 0 32 32">
<path d="M12 12h5.535v2.837h0.079c0.77-1.381 2.655-2.837 5.464-2.837 5.842 0 6.922 3.637 6.922 8.367v9.633h-5.769v-8.54c0-2.037-0.042-4.657-3.001-4.657-3.005 0-3.463 2.218-3.463 4.509v8.688h-5.767v-18z"></path>
<path d="M2 12h6v18h-6v-18z"></path>
<path d="M8 7c0 1.657-1.343 3-3 3s-3-1.343-3-3c0-1.657 1.343-3 3-3s3 1.343 3 3z"></path>
</symbol>
<symbol id="icon-chevron-down" viewBox="0 0 32 32">
<path fill="none" stroke="#fafce3" style="stroke: var(--color1, #fafce3)" stroke-linejoin="round" stroke-linecap="round" stroke-miterlimit="4" stroke-width="2.6667" d="M8 12l8 8 8-8"></path>
</symbol>
<symbol id="icon-location" viewBox="0 0 27 32">
<path fill="#fafce3" style="fill: var(--color1, #fafce3); stroke: var(--color1, #fafce3)" opacity="0.4" stroke="#fafce3" stroke-linejoin="miter" stroke-linecap="butt" stroke-miterlimit="10" stroke-width="0.7657" d="M25.143 13.668c0.001 1.7-0.381 3.378-1.117 4.912s-1.808 2.883-3.136 3.949l-7.209 7.186-7.469-7.444c-1.443-1.251-2.547-2.844-3.213-4.631s-0.87-3.712-0.595-5.599c0.275-1.887 1.020-3.674 2.168-5.199s2.661-2.738 4.401-3.529c1.74-0.791 3.652-1.134 5.559-0.997s3.75 0.748 5.359 1.779c1.609 1.030 2.933 2.447 3.85 4.12s1.399 3.548 1.4 5.454z"></path>
<path fill="#fafce3" style="fill: var(--color1, #fafce3)" d="M13.714 18.286c2.525 0 4.571-2.047 4.571-4.571s-2.047-4.571-4.571-4.571c-2.525 0-4.571 2.047-4.571 4.571s2.047 4.571 4.571 4.571z"></path>
</symbol>
<symbol id="icon-logo_mini_desktop" viewBox="0 0 128 32">
<path fill="#fafce3" style="fill: var(--color1, #fafce3)" d="M16.7 8.074c-0.14-0.509-0.599-0.878-1.144-0.878s-1.004 0.368-1.142 0.869l-0.002 0.008-0.592 2.422c-0.14 0.509-0.599 0.878-1.144 0.878s-1.004-0.368-1.142-0.869l-0.002-0.008-2.611-9.702c-0.094-0.446-0.477-0.778-0.94-0.794l-0.002-0h-6.984c-0.019-0.001-0.042-0.002-0.064-0.002-0.55 0-0.996 0.446-0.996 0.996 0 0.126 0.024 0.247 0.067 0.359l-0.002-0.007 7.617 25.352c0.13 0.421 0.504 0.726 0.952 0.753l0.003 0h6.728c0.454-0.011 0.832-0.325 0.94-0.747l0.002-0.007 2.691-9.783c0.019-0.093 0.030-0.2 0.030-0.309s-0.011-0.216-0.032-0.32l0.002 0.010z"></path>
<path fill="#fafce3" style="fill: var(--color1, #fafce3)" d="M40.693 12.609c-0.246-0.381-0.485-0.823-0.688-1.283l-0.025-0.062c-0.363-1.251-0.632-2.516-0.955-3.808-0.13-0.708-0.321-1.335-0.574-1.93l0.022 0.059c-0.315-0.509-0.666-0.95-1.063-1.345l-0-0c-0.214-0.27-0.343-0.615-0.343-0.99 0-0.3 0.082-0.58 0.226-0.82l-0.004 0.007c0.132-0.136 0.213-0.321 0.213-0.525s-0.081-0.389-0.213-0.525l0 0c-0.24-0.483-0.561-0.89-0.95-1.22l-0.005-0.005c-0.197-0.108-0.432-0.172-0.682-0.172-0.092 0-0.182 0.009-0.269 0.025l0.009-0.001c-0.626 0.025-1.149 0.435-1.343 0.999l-0.003 0.010c-0.104 0.208-0.164 0.453-0.164 0.713 0 0.592 0.316 1.111 0.789 1.396l0.007 0.004c0.161 0.081 0.309 0.202 0.552 0.323l-1.023 0.269c-0.372 0.065-0.67 0.324-0.792 0.666l-0.002 0.007c-0.251 0.513-0.537 0.955-0.87 1.357l0.009-0.011c-0.525 0.659-0.525 0.659-0.121 1.278-1.041 1.59-2.122 2.974-3.305 4.263l0.022-0.024c-0.188 0.188 0.161 0.188 0.363 0s0.121-0.161 0.188-0.121c0.073 0.11 0.118 0.245 0.121 0.389v0.001c-0.019 0.099-0.031 0.213-0.031 0.33s0.011 0.231 0.032 0.341l-0.002-0.011c0.081 0.161 0.242 0.121 0.323 0 0 0.081 0.229-0.579 0.229-0.659-0.148-0.78-0.108-0.659 0.283-1.13 0.552-0.673 1.897-1.346 2.53-1.965 0.255-0.318 0.487-0.675 0.683-1.054l0.017-0.036c0.202 0.74 0.404 1.346 0.552 2.072 0 0.081 0 0.161 0 0.188-0.604 1.115-0.962 2.439-0.969 3.846v0.002c-0.121 0.942-0.161 1.884-0.309 2.786-0.135 0.59-0.339 1.111-0.608 1.591l0.015-0.030c-0.161 0.323-1.265 0.471-1.628 0.323-0.7-0.323-0.982-0.296-1.346 0.148l-4.414-17.48c-0.096-0.45-0.485-0.784-0.954-0.794l-0.001-0h-7.092c-0.015-0.001-0.033-0.001-0.050-0.001-0.55 0-0.996 0.446-0.996 0.996 0 0.126 0.023 0.247 0.066 0.358l-0.002-0.007 6.944 25.393c0.129 0.417 0.496 0.721 0.938 0.753l0.003 0h6.634c0.529-0.015 0.954-0.44 0.969-0.968l0-0.001c0.001-0.020 0.002-0.044 0.002-0.067s-0.001-0.047-0.002-0.071l0 0.003c0-0.309 0.121-0.511 0.161-0.78 0.012-0.522 0.095-1.021 0.239-1.493l-0.010 0.039c0.264-0.46 0.517-1.001 0.728-1.563l0.026-0.078c0.3-1.182 0.609-2.147 0.966-3.087l-0.065 0.194c0.115-0.158 0.284-0.27 0.479-0.309l0.005-0.001 2.167-0.39c0.503-0.052 0.908-0.417 1.021-0.894l0.002-0.008c0.475-1.253 0.801-2.704 0.912-4.215l0.003-0.051c-0.003-0.029-0.004-0.062-0.004-0.096 0-0.298 0.12-0.569 0.314-0.765l-0 0c0.066-0.105 0.121-0.225 0.159-0.353l0.003-0.010c0-0.35-0.161-1.346-0.242-2.18 0.509 0.771 0.904 1.671 1.132 2.634l0.011 0.057c0.171 0.554 0.506 1.016 0.948 1.341l0.007 0.005c0.081 0 0.161 0 0.161-0.229-0.056-0.293-0.126-0.546-0.213-0.79l0.011 0.036c-0.081-0.188 0-0.39 0-0.39s0.552 0.861 0.592 0.592-0.309-0.673-0.458-0.996zM30.466 19.701c0.632-0.431 0.754-0.161 0.794-0.081s0.148 0.269 0.188 0.309c-0.073 0.174-0.151 0.397-0.217 0.626l-0.012 0.047c-0.121 0.471-0.202 0.928-0.283 1.346 0 0.175 0 0.7-0.081 1.050l-0.794-3.095z"></path>
<path fill="#fafce3" style="fill: var(--color1, #fafce3)" d="M41.608 27.775c-0.056 0.003-0.121 0.004-0.186 0.004-0.53 0-1.034-0.105-1.495-0.297l0.026 0.009c-0.35-0.152-0.638-0.392-0.843-0.693l-0.004-0.007c-0.143-0.265-0.247-0.573-0.294-0.9l-0.002-0.015c0-0.309 0-0.592 0-0.861v-4.131q0-0.323 0-0.767c0.049-0.347 0.153-0.66 0.304-0.944l-0.008 0.016c0.203-0.329 0.492-0.587 0.836-0.749l0.012-0.005c0.441-0.198 0.956-0.313 1.498-0.313 0.055 0 0.111 0.001 0.165 0.004l-0.008-0h4.629c0.073-0.003 0.158-0.004 0.243-0.004 0.705 0 1.385 0.105 2.026 0.3l-0.049-0.013c0.49 0.129 0.892 0.439 1.139 0.853l0.005 0.009c0.215 0.424 0.34 0.923 0.34 1.453 0 0.057-0.001 0.114-0.004 0.17l0-0.008v3.189h-3.768c-1.346 0-2.341 0-3.162-0.081l-1.615-0.108v1.184c0 0.565 0.336 0.861 1.036 0.861h3.351l2.045-0.081 1.494-0.108 0.861 1.346c0 0.444-1.346 0.659-4.239 0.659zM41.393 22.217h5.921v-1.346c0.001-0.022 0.002-0.048 0.002-0.073 0-0.192-0.040-0.375-0.113-0.541l0.003 0.009c0-0.108-0.242-0.188-0.565-0.215s-0.848 0-1.615 0h-2.597c-0.686 0-1.036 0.283-1.036 0.861zM52.333 27.775v-13.645h2.691v4.266c0.619-0.081 1.346-0.135 2.18-0.175s1.803-0.094 2.88-0.094h1.103c0.056-0.003 0.121-0.004 0.186-0.004 0.53 0 1.034 0.105 1.495 0.297l-0.026-0.009c0.345 0.153 0.625 0.399 0.816 0.706l0.004 0.008c0.161 0.258 0.267 0.565 0.296 0.894l0.001 0.008c0.038 0.254 0.062 0.552 0.067 0.855l0 0.006v4.131c-0.007 0.292-0.032 0.571-0.072 0.845l0.005-0.038c-0.035 0.337-0.141 0.643-0.302 0.912l0.006-0.010c-0.194 0.328-0.474 0.587-0.81 0.749l-0.011 0.005c-0.429 0.19-0.93 0.301-1.457 0.301-0.070 0-0.139-0.002-0.207-0.006l0.010 0h-1.171c-1.184 0-2.234 0-3.122-0.081l-2.22-0.215-0.579 0.296zM55.63 25.931h4.669c0.686 0 1.036-0.296 1.036-0.861v-4.225c0.006-0.038 0.010-0.082 0.010-0.128 0-0.21-0.081-0.402-0.212-0.546l0.001 0.001c-0.199-0.123-0.44-0.195-0.698-0.195-0.048 0-0.095 0.003-0.142 0.007l0.006-0h-1.090c-0.915 0-1.736 0-2.449 0.067s-1.346 0-1.817 0.108v5.1c-0.005 0.036-0.007 0.078-0.007 0.121 0 0.161 0.037 0.314 0.104 0.45l-0.003-0.006c0.132 0.074 0.29 0.117 0.458 0.117 0.047 0 0.094-0.003 0.139-0.010l-0.005 0.001zM68.966 27.775c-0.065 0.004-0.141 0.006-0.217 0.006-0.528 0-1.032-0.106-1.491-0.298l0.025 0.009c-0.35-0.152-0.638-0.392-0.843-0.693l-0.004-0.007c-0.143-0.265-0.247-0.573-0.294-0.9l-0.002-0.015c0-0.309 0-0.592 0-0.861v-4.131q0-0.323 0-0.767c0.049-0.347 0.153-0.66 0.304-0.944l-0.008 0.016c0.203-0.329 0.492-0.587 0.836-0.749l0.012-0.005c0.441-0.198 0.956-0.313 1.498-0.313 0.055 0 0.111 0.001 0.165 0.004l-0.008-0h4.629c0.073-0.003 0.158-0.004 0.243-0.004 0.705 0 1.385 0.105 2.026 0.3l-0.049-0.013c0.486 0.13 0.884 0.44 1.126 0.853l0.005 0.009c0.223 0.419 0.355 0.917 0.355 1.445 0 0.060-0.002 0.119-0.005 0.178l0-0.008v3.189h-3.768c-1.346 0-2.341 0-3.162-0.081l-1.615-0.108v1.184c0 0.565 0.323 0.861 1.036 0.861h3.351l2.045-0.081 1.548-0.135 0.861 1.346c0 0.444-1.346 0.659-4.252 0.659zM68.75 22.217h5.921v-1.346c0.001-0.022 0.002-0.048 0.002-0.073 0-0.192-0.040-0.375-0.113-0.541l0.003 0.009c0-0.108-0.242-0.188-0.565-0.215s-0.848 0-1.615 0h-2.597c-0.7 0-1.036 0.283-1.036 0.861zM83.041 27.775l-4.427-9.648h3.014l2.476 5.948 0.552 1.494h0.215l0.565-1.548 2.516-5.948h2.934l-0.35 1.346-4.037 8.33zM95.018 27.775c-0.060 0.003-0.131 0.005-0.202 0.005-0.524 0-1.023-0.106-1.478-0.297l0.025 0.009c-0.35-0.152-0.638-0.392-0.843-0.693l-0.004-0.007c-0.149-0.264-0.254-0.574-0.295-0.903l-0.001-0.012c0-0.309 0-0.592 0-0.861v-4.131q0-0.323 0-0.767c0.042-0.346 0.147-0.66 0.303-0.942l-0.007 0.013c0.203-0.329 0.492-0.587 0.836-0.749l0.012-0.005c0.439-0.198 0.951-0.313 1.49-0.313 0.058 0 0.116 0.001 0.173 0.004l-0.008-0h4.629c0.073-0.003 0.158-0.004 0.243-0.004 0.705 0 1.385 0.105 2.026 0.3l-0.049-0.013c0.486 0.13 0.884 0.44 1.126 0.853l0.005 0.009c0.222 0.43 0.353 0.938 0.353 1.477 0 0.048-0.001 0.096-0.003 0.144l0-0.007v3.189h-3.768c-1.346 0-2.341 0-3.162-0.081l-1.615-0.108v1.184c0 0.565 0.323 0.861 1.036 0.861h3.31l2.045-0.081 1.494-0.108 0.861 1.346c0 0.444-1.346 0.659-4.252 0.659zM94.802 22.217h5.921v-1.346c0.001-0.022 0.002-0.048 0.002-0.073 0-0.192-0.040-0.375-0.113-0.541l0.003 0.009c0-0.108-0.242-0.188-0.565-0.215s-0.848 0-1.615 0h-2.597c-0.7 0-1.036 0.283-1.036 0.861zM105.743 27.775v-9.648h1.763l0.821 0.431c0.342-0.185 0.74-0.346 1.157-0.461l0.041-0.010c0.464-0.112 0.997-0.176 1.544-0.176 0.034 0 0.069 0 0.103 0.001l-0.005-0c0.068-0.002 0.148-0.003 0.228-0.003 0.827 0 1.623 0.129 2.37 0.368l-0.055-0.015c0.546 0.173 0.992 0.346 1.424 0.543l-0.078-0.032-0.754 1.884c-0.245-0.125-0.531-0.235-0.829-0.316l-0.032-0.007c-0.375-0.149-0.826-0.284-1.29-0.381l-0.055-0.010c-0.496-0.112-1.067-0.176-1.652-0.176-0.034 0-0.069 0-0.103 0.001l0.005-0h-0.229c-0.066-0.009-0.143-0.014-0.221-0.014-0.431 0-0.825 0.158-1.127 0.42l0.002-0.002c-0.205 0.35-0.326 0.772-0.326 1.221 0 0.044 0.001 0.087 0.003 0.131l-0-0.006v6.244zM117.436 32c-0.025 0-0.054 0.001-0.083 0.001-0.646 0-1.27-0.089-1.863-0.254l0.049 0.012c-0.443-0.101-0.834-0.249-1.196-0.443l0.025 0.012 0.646-1.938c0.268 0.113 0.613 0.232 0.965 0.333l0.071 0.017c0.457 0.137 0.983 0.215 1.526 0.215 0.007 0 0.015 0 0.022-0h0.241c0.014 0 0.031 0 0.048 0 0.648 0 1.242-0.229 1.706-0.61l-0.005 0.004c0.518-0.409 0.923-0.939 1.175-1.549l0.009-0.025h-1.009l-4.225-9.648h3.014l2.476 5.948 0.498 1.494h0.215l0.552-1.548 2.516-5.948h2.934l-0.35 1.346c-0.269 0.565-0.579 1.211-0.942 1.938s-0.7 1.467-1.077 2.234l-1.103 2.247-0.915 1.911c-0.401 0.858-0.85 1.596-1.368 2.278l0.022-0.030c-0.455 0.597-1.020 1.084-1.668 1.44l-0.027 0.014c-0.62 0.332-1.356 0.526-2.137 0.526-0.043 0-0.087-0.001-0.13-0.002l0.006 0z"></path>
</symbol>
<symbol id="icon-logo_mini_tablet" viewBox="0 0 36 32">
<path fill="#fafce3" style="fill: var(--color1, #fafce3)" d="M2.924 30.835l-1.016-2.821h0.879l0.514 1.599 0.16 0.56h0.069l0.091-0.503 0.434-1.656h1.005l0.457 1.656 0.091 0.503h0.103l0.171-0.571 0.48-1.587h0.834l-0.103 0.388-0.902 2.433h-1.005l-0.525-1.736v-0.297h-0.091l-0.069 0.297-0.571 1.736zM8.405 30.835c-0.012 0-0.027 0.001-0.042 0.001-0.162 0-0.317-0.034-0.457-0.095l0.007 0.003c-0.104-0.037-0.188-0.11-0.239-0.203l-0.001-0.002c-0.045-0.076-0.077-0.164-0.091-0.259l-0-0.004c-0.003-0.038-0.004-0.081-0.004-0.126s0.001-0.088 0.004-0.132l-0 0.006v-1.142c-0.003-0.034-0.004-0.074-0.004-0.114s0.001-0.080 0.004-0.119l-0 0.005c0.016-0.103 0.048-0.195 0.094-0.279l-0.002 0.005c0.054-0.097 0.137-0.172 0.237-0.216l0.003-0.001c0.132-0.058 0.287-0.092 0.449-0.092 0.015 0 0.029 0 0.044 0.001l-0.002-0h1.348c0.025-0.001 0.054-0.002 0.084-0.002 0.202 0 0.397 0.030 0.581 0.085l-0.014-0.004c0.14 0.043 0.255 0.132 0.33 0.249l0.001 0.002c0.065 0.126 0.104 0.276 0.104 0.434 0 0.016-0 0.032-0.001 0.048l0-0.002v0.811h-2.501v0.343c0 0.171 0.103 0.251 0.308 0.251h2.010l0.251 0.4c0 0.137-0.423 0.206-1.245 0.206zM8.337 29.156h1.724v-0.411c0.007-0.026 0.011-0.055 0.011-0.086s-0.004-0.060-0.011-0.088l0.001 0.002s-0.103-0.023-0.194-0.023h-1.222c-0.206 0-0.308 0.091-0.308 0.251zM11.535 30.835v-4.043h0.765v1.245l0.628-0.057h1.165c0.020-0.001 0.044-0.002 0.068-0.002 0.149 0 0.29 0.030 0.419 0.085l-0.007-0.003c0.1 0.045 0.181 0.115 0.239 0.203l0.001 0.002c0.050 0.078 0.083 0.171 0.091 0.272l0 0.002c0.002 0.038 0.004 0.081 0.004 0.126s-0.001 0.088-0.004 0.132l0-0.006v1.142c0.002 0.034 0.003 0.074 0.003 0.114s-0.001 0.080-0.004 0.12l0-0.005c-0.010 0.102-0.043 0.196-0.093 0.277l0.002-0.003c-0.057 0.094-0.139 0.169-0.236 0.216l-0.003 0.001c-0.127 0.058-0.275 0.093-0.431 0.093-0.017 0-0.034-0-0.051-0.001l0.002 0h-0.32c-0.343 0-0.651 0-0.914 0l-0.64-0.057-0.171 0.091zM12.494 30.287h1.359c0.206 0 0.308-0.080 0.308-0.251v-1.291c0-0.005 0.001-0.012 0.001-0.018 0-0.066-0.022-0.127-0.058-0.177l0.001 0.001c-0.061-0.037-0.136-0.059-0.215-0.059-0.013 0-0.026 0.001-0.038 0.002l0.002-0h-1.553v1.485c-0.006 0.024-0.009 0.052-0.009 0.080s0.003 0.056 0.010 0.082l-0.001-0.002c0.048 0.054 0.117 0.088 0.194 0.091l0.001 0zM16.377 30.835c-0.009 0-0.020 0-0.031 0-0.162 0-0.316-0.034-0.456-0.095l0.007 0.003c-0.104-0.037-0.188-0.11-0.239-0.203l-0.001-0.002c-0.045-0.076-0.077-0.164-0.091-0.259l-0-0.004c-0.003-0.038-0.004-0.081-0.004-0.126s0.001-0.088 0.004-0.132l-0 0.006v-1.142c-0.003-0.034-0.004-0.074-0.004-0.114s0.001-0.080 0.004-0.119l-0 0.005c0.016-0.103 0.048-0.195 0.094-0.279l-0.002 0.005c0.054-0.097 0.137-0.172 0.237-0.216l0.003-0.001c0.132-0.058 0.287-0.092 0.449-0.092 0.011 0 0.022 0 0.033 0l-0.002-0h1.359c0.026-0.001 0.057-0.002 0.088-0.002 0.197 0 0.387 0.030 0.565 0.086l-0.013-0.004c0.143 0.042 0.262 0.131 0.341 0.249l0.001 0.002c0.058 0.132 0.092 0.287 0.092 0.449 0 0.011-0 0.022-0 0.033l0-0.002v0.811h-2.535v0.343c0 0.171 0.091 0.251 0.297 0.251h2.010l0.251 0.4q0 0.206-1.233 0.206zM16.32 29.213h1.724v-0.411c0.007-0.026 0.012-0.055 0.012-0.086s-0.004-0.060-0.012-0.088l0.001 0.002s-0.069-0.057-0.16-0.057h-1.233c-0.194 0-0.297 0.091-0.297 0.251zM20.488 30.835l-1.291-2.821h0.879l0.72 1.679 0.171 0.457h0.057l0.16-0.457 0.742-1.736h0.845l-0.091 0.388-1.142 2.433zM23.983 30.835c-0.009 0-0.020 0-0.031 0-0.162 0-0.316-0.034-0.456-0.095l0.007 0.003c-0.106-0.040-0.192-0.112-0.25-0.203l-0.001-0.002c-0.039-0.076-0.071-0.164-0.090-0.256l-0.001-0.007c0-0.091 0-0.171 0-0.251v-1.142c0-0.069 0-0.148 0-0.228 0.022-0.104 0.054-0.196 0.095-0.282l-0.003 0.008c0.062-0.094 0.147-0.169 0.248-0.215l0.004-0.002c0.132-0.058 0.287-0.092 0.449-0.092 0.011 0 0.022 0 0.033 0l-0.002-0h1.348c0.025-0.001 0.054-0.002 0.084-0.002 0.202 0 0.397 0.030 0.581 0.085l-0.014-0.004c0.142 0.039 0.258 0.129 0.33 0.249l0.001 0.003c0.065 0.126 0.104 0.276 0.104 0.434 0 0.016-0 0.032-0.001 0.048l0-0.002v0.811h-2.547v0.343c0 0.171 0.103 0.251 0.308 0.251h2.010l0.251 0.4q0 0.206-1.233 0.206zM23.914 29.213h1.736v-0.411c0.007-0.026 0.012-0.055 0.012-0.086s-0.004-0.060-0.012-0.088l0.001 0.002s-0.069-0.057-0.16-0.057h-1.233c-0.206 0-0.308 0.091-0.308 0.251zM27.112 30.835v-2.878h0.514l0.24 0.126c0.101-0.055 0.219-0.102 0.343-0.134l0.011-0.003c0.072-0.010 0.155-0.015 0.24-0.015s0.168 0.006 0.249 0.016l-0.010-0.001c0.016-0 0.035-0.001 0.054-0.001 0.241 0 0.474 0.034 0.694 0.096l-0.018-0.004c0.156 0.053 0.284 0.108 0.408 0.169l-0.020-0.009-0.217 0.537-0.251-0.183-0.4-0.114c-0.077-0.009-0.166-0.013-0.257-0.013s-0.18 0.005-0.268 0.014l0.011-0.001h-0.069c-0.022-0.003-0.048-0.006-0.074-0.006-0.125 0-0.238 0.045-0.326 0.12l0.001-0.001c-0.058 0.101-0.093 0.222-0.093 0.351 0 0.017 0.001 0.034 0.002 0.051l-0-0.002v1.884zM30.538 32.057c-0.006 0-0.014 0-0.021 0-0.191 0-0.377-0.025-0.553-0.072l0.015 0.003c-0.13-0.029-0.244-0.072-0.35-0.129l0.007 0.004 0.194-0.56 0.297 0.103c0.137 0.036 0.294 0.057 0.456 0.057 0 0 0 0 0.001 0h0.068c0.003 0 0.007 0 0.011 0 0.19 0 0.365-0.064 0.504-0.173l-0.002 0.001c0.149-0.12 0.266-0.273 0.34-0.449l0.003-0.008h-0.331l-1.222-2.821h0.879l0.72 1.679 0.16 0.457h0.069l0.194-0.457 0.731-1.736h0.857l-0.103 0.388-0.274 0.56c-0.103 0.206-0.206 0.434-0.308 0.651s-0.217 0.445-0.331 0.662l-0.263 0.56c-0.125 0.249-0.258 0.462-0.408 0.662l0.008-0.011c-0.136 0.173-0.303 0.314-0.494 0.418l-0.008 0.004c-0.177 0.094-0.388 0.149-0.611 0.149-0.018 0-0.036-0-0.054-0.001l0.003 0z"></path>
<path fill="#fafce3" style="fill: var(--color1, #fafce3)" d="M14.641 7.081c-0.121-0.449-0.525-0.775-1.005-0.775s-0.884 0.325-1.003 0.767l-0.002 0.007-0.514 2.124c-0.121 0.449-0.525 0.775-1.005 0.775s-0.884-0.325-1.003-0.767l-0.002-0.007-2.284-8.508c-0.085-0.392-0.424-0.684-0.832-0.697l-0.001-0h-6.121c-0.013-0.001-0.029-0.001-0.045-0.001-0.479 0-0.868 0.389-0.868 0.868 0 0.098 0.016 0.193 0.047 0.281l-0.002-0.006 6.681 22.27c0.115 0.365 0.441 0.629 0.831 0.651l0.002 0h5.95c0.393-0.012 0.721-0.282 0.821-0.645l0.001-0.006 2.284-8.577c0.016-0.082 0.026-0.177 0.026-0.274s-0.009-0.192-0.027-0.283l0.002 0.009z"></path>
<path fill="#fafce3" style="fill: var(--color1, #fafce3)" d="M35.666 11.055c-0.217-0.349-0.424-0.755-0.597-1.178l-0.020-0.055c-0.32-1.142-0.56-2.193-0.834-3.323-0.121-0.632-0.287-1.187-0.502-1.717l0.022 0.061c-0.289-0.427-0.597-0.8-0.937-1.143l0 0.001c-0.191-0.232-0.307-0.533-0.307-0.86 0-0.265 0.076-0.513 0.207-0.722l-0.003 0.006c0.111-0.121 0.18-0.284 0.18-0.463s-0.068-0.341-0.18-0.463l0 0c-0.285-0.377-0.457-0.822-0.868-1.062-0.175-0.103-0.387-0.164-0.612-0.164-0.091 0-0.179 0.010-0.264 0.029l0.008-0.002c-0.533 0.043-0.973 0.399-1.139 0.882l-0.003 0.009c-0.088 0.18-0.139 0.392-0.139 0.616 0 0.521 0.277 0.978 0.692 1.23l0.006 0.004c0.137 0.069 0.274 0.171 0.48 0.274l-0.902 0.24c-0.319 0.061-0.575 0.283-0.683 0.576l-0.002 0.006c-0.215 0.436-0.47 0.812-0.77 1.147l0.004-0.005c-0.445 0.582-0.445 0.582-0.103 1.142-0.917 1.387-1.86 2.595-2.888 3.724l0.022-0.024c-0.171 0.171 0.137 0.171 0.308 0s0.103-0.137 0.171-0.103c0.062 0.097 0.1 0.215 0.103 0.342v0.001c-0.017 0.088-0.026 0.188-0.026 0.291s0.010 0.204 0.028 0.301l-0.002-0.010c0.069 0.137 0.206 0.103 0.274 0 0 0.069 0.217-0.514 0.217-0.582-0.137-0.685-0.103-0.582 0.24-0.994 0.48-0.582 1.656-1.142 2.216-1.713 0.227-0.28 0.436-0.594 0.613-0.928l0.015-0.032c0.171 0.651 0.343 1.233 0.491 1.816 0.010 0.025 0.015 0.055 0.015 0.086s-0.006 0.060-0.016 0.087l0.001-0.002c-0.504 0.943-0.8 2.062-0.8 3.25 0 0.038 0 0.075 0.001 0.113l-0-0.006c-0.103 0.822-0.137 1.645-0.274 2.444-0.12 0.518-0.3 0.976-0.539 1.396l0.013-0.026c-0.137 0.274-1.142 0.411-1.416 0.274-0.617-0.274-0.868-0.263-1.142 0.137l-3.951-15.269c-0.089-0.39-0.425-0.68-0.832-0.697l-0.002-0h-6.224c-0.483 0.003-0.874 0.396-0.874 0.879 0 0.094 0.015 0.184 0.042 0.269l-0.002-0.006 6.087 22.27c0.118 0.363 0.442 0.626 0.831 0.651l0.003 0h5.813c0.462-0.012 0.833-0.383 0.845-0.844l0-0.001c0.025-0.032 0.044-0.071 0.056-0.112l0.001-0.003c0-0.274 0.103-0.445 0.137-0.685 0.012-0.46 0.086-0.899 0.215-1.313l-0.009 0.034c0.222-0.398 0.442-0.873 0.626-1.364l0.025-0.075c0.266-1.035 0.54-1.88 0.856-2.704l-0.057 0.168c0.097-0.137 0.24-0.235 0.407-0.273l0.005-0.001 1.77-0.308c0.442-0.044 0.8-0.362 0.901-0.781l0.001-0.007c0.408-1.1 0.689-2.375 0.785-3.7l0.003-0.046c-0.002-0.025-0.004-0.053-0.004-0.082 0-0.264 0.111-0.503 0.289-0.671l0-0c0.056-0.089 0.103-0.191 0.135-0.3l0.002-0.009c0-0.308-0.137-1.142-0.206-1.919 0.437 0.689 0.78 1.49 0.983 2.345l0.011 0.053c0.157 0.47 0.448 0.861 0.827 1.137l0.007 0.005c0.069 0 0.137 0 0.137-0.206-0.047-0.253-0.107-0.472-0.181-0.683l0.010 0.032c-0.069-0.171 0-0.343 0-0.343s0.48 0.754 0.514 0.514c-0.118-0.355-0.234-0.642-0.365-0.921l0.022 0.053zM26.712 17.268c0.548-0.377 0.651-0.137 0.685-0.069s0.137 0.24 0.171 0.274c-0.074 0.161-0.144 0.355-0.199 0.555l-0.006 0.028c-0.103 0.411-0.171 0.822-0.24 1.233 0 0.16 0 0.617-0.080 0.925l-0.685-2.718c0.101-0.074 0.216-0.15 0.336-0.219l0.018-0.010z"></path>
</symbol>
</defs>
</svg>
